<svg width="410" height="78" viewBox="0 0 410 78" fill="none" xmlns="http://www.w3.org/2000/svg">
<g filter="url(#filter0_d_103_5)">
<path d="M65.4219 69H46.9531L17.1406 17.1562H16.7188C16.8438 19.3125 16.9531 21.4844 17.0469 23.6719C17.1406 25.8594 17.2344 28.0469 17.3281 30.2344C17.4219 32.3906 17.5156 34.5625 17.6094 36.75V69H4.625V0.46875H22.9531L52.7188 51.7969H53.0469C52.9844 49.6719 52.9062 47.5625 52.8125 45.4688C52.7188 43.375 52.625 41.2812 52.5312 39.1875C52.4688 37.0938 52.4062 35 52.3438 32.9062V0.46875H65.4219V69ZM103.062 15.5156C110.094 15.5156 115.484 17.0469 119.234 20.1094C122.984 23.1719 124.859 27.8281 124.859 34.0781V69H114.875L112.109 61.875H111.734C110.234 63.75 108.703 65.2812 107.141 66.4688C105.578 67.6562 103.781 68.5312 101.75 69.0938C99.7188 69.6562 97.25 69.9375 94.3438 69.9375C91.25 69.9375 88.4688 69.3438 86 68.1562C83.5625 66.9688 81.6406 65.1562 80.2344 62.7188C78.8281 60.25 78.125 57.125 78.125 53.3438C78.125 47.7812 80.0781 43.6875 83.9844 41.0625C87.8906 38.4062 93.75 36.9375 101.562 36.6562L110.656 36.375V34.0781C110.656 31.3281 109.938 29.3125 108.5 28.0312C107.062 26.75 105.062 26.1094 102.5 26.1094C99.9688 26.1094 97.4844 26.4688 95.0469 27.1875C92.6094 27.9062 90.1719 28.8125 87.7344 29.9062L83 20.25C85.7812 18.7812 88.8906 17.625 92.3281 16.7812C95.7969 15.9375 99.375 15.5156 103.062 15.5156ZM110.656 44.7188L105.125 44.9062C100.5 45.0312 97.2812 45.8594 95.4688 47.3906C93.6875 48.9219 92.7969 50.9375 92.7969 53.4375C92.7969 55.625 93.4375 57.1875 94.7188 58.125C96 59.0312 97.6719 59.4844 99.7344 59.4844C102.797 59.4844 105.375 58.5781 107.469 56.7656C109.594 54.9531 110.656 52.375 110.656 49.0312V44.7188ZM152.094 69L132.125 16.5938H147.078L157.203 46.4531C157.766 48.2031 158.203 50.0469 158.516 51.9844C158.859 53.9219 159.094 55.6562 159.219 57.1875H159.594C159.688 55.5312 159.906 53.7656 160.25 51.8906C160.625 50.0156 161.109 48.2031 161.703 46.4531L171.781 16.5938H186.734L166.766 69H152.094ZM220.344 0.46875H241.672C250.797 0.46875 257.703 1.75 262.391 4.3125C267.078 6.875 269.422 11.375 269.422 17.8125C269.422 20.4062 269 22.75 268.156 24.8438C267.344 26.9375 266.156 28.6562 264.594 30C263.031 31.3438 261.125 32.2188 258.875 32.625V33.0938C261.156 33.5625 263.219 34.375 265.062 35.5312C266.906 36.6562 268.375 38.3125 269.469 40.5C270.594 42.6562 271.156 45.5312 271.156 49.125C271.156 53.2812 270.141 56.8438 268.109 59.8125C266.078 62.7812 263.172 65.0625 259.391 66.6562C255.641 68.2188 251.172 69 245.984 69H220.344V0.46875ZM234.875 27.6094H243.312C247.531 27.6094 250.453 26.9531 252.078 25.6406C253.703 24.2969 254.516 22.3281 254.516 19.7344C254.516 17.1094 253.547 15.2344 251.609 14.1094C249.703 12.9531 246.672 12.375 242.516 12.375H234.875V27.6094ZM234.875 39.1406V57H244.344C248.719 57 251.766 56.1562 253.484 54.4688C255.203 52.7812 256.062 50.5156 256.062 47.6719C256.062 45.9844 255.688 44.5 254.938 43.2188C254.188 41.9375 252.922 40.9375 251.141 40.2188C249.391 39.5 246.969 39.1406 243.875 39.1406H234.875ZM326.797 69L321.828 52.6875H296.844L291.875 69H276.219L300.406 0.1875H318.172L342.453 69H326.797ZM318.359 40.5L313.391 24.5625C313.078 23.5 312.656 22.1406 312.125 20.4844C311.625 18.7969 311.109 17.0938 310.578 15.375C310.078 13.625 309.672 12.1094 309.359 10.8281C309.047 12.1094 308.609 13.7031 308.047 15.6094C307.516 17.4844 307 19.2656 306.5 20.9531C306 22.6406 305.641 23.8438 305.422 24.5625L300.5 40.5H318.359ZM371.094 0.46875C377.312 0.46875 382.438 1.21875 386.469 2.71875C390.531 4.21875 393.547 6.48438 395.516 9.51562C397.484 12.5469 398.469 16.375 398.469 21C398.469 24.125 397.875 26.8594 396.688 29.2031C395.5 31.5469 393.938 33.5312 392 35.1562C390.062 36.7812 387.969 38.1094 385.719 39.1406L405.875 69H389.75L373.391 42.7031H365.656V69H351.125V0.46875H371.094ZM370.062 12.375H365.656V30.8906H370.344C375.156 30.8906 378.594 30.0938 380.656 28.5C382.75 26.875 383.797 24.5 383.797 21.375C383.797 18.125 382.672 15.8125 380.422 14.4375C378.203 13.0625 374.75 12.375 370.062 12.375Z" fill="#7AB398"/>
</g>
<defs>
<filter id="filter0_d_103_5" x="0.625" y="0.1875" width="409.25" height="77.75" filterUnits="userSpaceOnUse" color-interpolation-filters="sRGB">
<feFlood flood-opacity="0" result="BackgroundImageFix"/>
<feColorMatrix in="SourceAlpha" type="matrix" values="0 0 0 0 0 0 0 0 0 0 0 0 0 0 0 0 0 0 127 0" result="hardAlpha"/>
<feOffset dy="4"/>
<feGaussianBlur stdDeviation="2"/>
<feComposite in2="hardAlpha" operator="out"/>
<feColorMatrix type="matrix" values="0 0 0 0 0 0 0 0 0 0 0 0 0 0 0 0 0 0 0.25 0"/>
<feBlend mode="normal" in2="BackgroundImageFix" result="effect1_dropShadow_103_5"/>
<feBlend mode="normal" in="SourceGraphic" in2="effect1_dropShadow_103_5" result="shape"/>
</filter>
</defs>
</svg>
